<?xml version="1.0" encoding="UTF-8" standalone="no"?><!DOCTYPE svg PUBLIC "-//W3C//DTD SVG 1.1//EN" "http://www.w3.org/Graphics/SVG/1.1/DTD/svg11.dtd"><svg width="100%" height="100%" viewBox="0 0 1067 1067" version="1.1" xmlns="http://www.w3.org/2000/svg" xmlns:xlink="http://www.w3.org/1999/xlink" xml:space="preserve" xmlns:serif="http://www.serif.com/" style="fill-rule:evenodd;clip-rule:evenodd;stroke-linejoin:round;stroke-miterlimit:2;"><path d="M533.333,32.085l110.593,380.559c1.27,4.372 3.959,8.196 7.641,10.872c3.683,2.676 8.152,4.051 12.702,3.908l396.108,-12.419l-327.758,222.779c-3.765,2.559 -6.572,6.297 -7.979,10.627c-1.407,4.329 -1.333,9.004 0.208,13.287l134.216,372.884l-313.158,-242.875c-3.597,-2.789 -8.02,-4.304 -12.573,-4.304c-4.552,0 -8.975,1.515 -12.572,4.304l-313.159,242.875l134.216,-372.884c1.542,-4.283 1.615,-8.958 0.209,-13.287c-1.407,-4.33 -4.214,-8.068 -7.979,-10.627l-327.758,-222.779l396.108,12.419c4.55,0.143 9.018,-1.232 12.701,-3.908c3.683,-2.676 6.371,-6.5 7.642,-10.872l110.592,-380.559Z" style="fill:#71c900;"/></svg>